<?xml version="1.0" encoding="UTF-8"?>
<svg viewBox="0 0 48 48" xmlns="http://www.w3.org/2000/svg">
 <defs>
  <radialGradient id="g" cx="26.434" cy="46.14" r="13.818" gradientTransform="matrix(1 0 0 .1 0 41.524)" gradientUnits="userSpaceOnUse">
   <stop stop-color="#2e3436" offset="0"/>
   <stop stop-color="#2e3436" stop-opacity="0" offset="1"/>
  </radialGradient>
  <radialGradient id="h" cx="16.791" cy="8.822" r="20.676" gradientUnits="userSpaceOnUse">
   <stop stop-color="#fff" stop-opacity=".45" offset="0"/>
   <stop stop-color="#fff" stop-opacity="0" offset="1"/>
  </radialGradient>
  <linearGradient id="i" x1="86.13" x2="84.64" y1="105.11" y2="20.895" gradientTransform="matrix(.28796 -.11676 .11676 .28796 -1.7854 12.564)" gradientUnits="userSpaceOnUse">
   <stop stop-color="#fff" stop-opacity=".679" offset="0"/>
   <stop stop-opacity=".333" offset="1"/>
  </linearGradient>
  <radialGradient id="j" cx="25.25" cy="41.18" r="22" gradientTransform="matrix(.62109 -1.8176 1.6111 .55051 -50.378 62.138)" gradientUnits="userSpaceOnUse">
   <stop stop-color="#888a85" offset="0"/>
   <stop stop-color="#babdb6" offset="1"/>
  </radialGradient>
  <linearGradient id="k" x1="2.35" x2="45.65" y1="1.35" y2="44.65" gradientTransform="matrix(.95763 0 0 .95763 1.0168 1.2075)" gradientUnits="userSpaceOnUse">
   <stop stop-color="#888a85" offset="0"/>
   <stop stop-color="#555753" offset=".78"/>
   <stop stop-color="#2e3436" offset="1"/>
  </linearGradient>
  <linearGradient id="l" x2="0" y1="2.39" y2="43.61" gradientUnits="userSpaceOnUse">
   <stop stop-color="#fff" stop-opacity=".8" offset="0"/>
   <stop stop-color="#fff" stop-opacity="0" offset="1"/>
  </linearGradient>
 </defs>
 <path transform="matrix(1.2507 0 0 2.3511 -8.9182 -66.224)" d="m40.252 46.138a13.818 1.3818 0 1 1 -27.635 0 13.818 1.3818 0 1 1 27.635 0z" fill="url(#g)" opacity=".628"/>
 <path d="m13.629 5.221c-0.7509 0.30447-1.1063 1.1739-0.79668 1.9376l1.0908 2.6901c-1.1976 0.90215-2.2614 1.9627-3.1585 3.1213l-2.6895-1.1377c-0.37951-0.16054-0.76096-0.17239-1.1116-0.033671-0.35063 0.13872-0.65539 0.4087-0.81323 0.78183l-2.2259 5.262c-0.31568 0.74626 0.044611 1.5813 0.80363 1.9023l2.6895 1.1377c-0.20674 1.4506-0.22691 2.9527-0.040237 4.4404l-2.6901 1.0908c-0.76374 0.30967-1.1401 1.1703-0.83565 1.9212l2.1365 5.2693c0.30447 0.7509 1.1739 1.1063 1.9376 0.79667l2.6901-1.0908c0.90215 1.1976 1.9627 2.2614 3.1213 3.1585l-1.1377 2.6895c-0.32107 0.75902 0.0019 1.6091 0.74816 1.9248l5.262 2.2259c0.74626 0.31568 1.5813-0.04461 1.9023-0.80363l1.1377-2.6895c1.4506 0.20674 2.9527 0.22691 4.4404 0.04024l1.0908 2.6901c0.30967 0.76374 1.1703 1.1401 1.9212 0.83565l5.2693-2.1365c0.7509-0.30447 1.1063-1.1739 0.79668-1.9376l-1.0908-2.6901c1.1976-0.90215 2.2614-1.9627 3.1585-3.1213l2.6895 1.1377c0.75902 0.32107 1.6091-0.0019 1.9248-0.74816l2.2259-5.262c0.31568-0.74626-0.04461-1.5813-0.80363-1.9023l-2.6895-1.1377c0.20674-1.4506 0.22691-2.9527 0.04024-4.4404l2.6901-1.0908c0.76374-0.30967 1.1401-1.1703 0.83565-1.9212l-2.1365-5.2693c-0.30447-0.7509-1.1739-1.1063-1.9376-0.79668l-2.6901 1.0908c-0.90215-1.1976-1.9627-2.2614-3.1213-3.1585l1.1377-2.6895c0.32107-0.75902-0.001901-1.6091-0.74816-1.9248l-5.262-2.2259c-0.74626-0.31568-1.5813 0.044612-1.9023 0.80363l-1.1377 2.6895c-1.4506-0.20674-2.9527-0.22691-4.4404-0.040237l-1.0908-2.6901c-0.30967-0.76374-1.1703-1.1401-1.9212-0.83565l-5.2693 2.1365zm8.0322 12.244c3.1842-1.2911 6.8163 0.24534 8.1074 3.4295s-0.24534 6.8163-3.4295 8.1074c-3.1842 1.2911-6.8163-0.24534-8.1074-3.4295-1.2911-3.1842 0.24534-6.8163 3.4295-8.1074z" display="block" fill="url(#j)" stroke="url(#k)" stroke-linejoin="round" stroke-width=".958"/>
 <path transform="matrix(.95763 0 0 .95763 1.0168 1.2075)" d="m19.062 2.9375-0.15625 0.0625-5.375 2.1562c-0.24803 0.10057-0.3506 0.33108-0.21875 0.65625a0.5859 0.5859 0 0 1 0 0.03125 0.5859 0.5859 0 0 1 0.03125 0.03125v0.0625a0.5859 0.5859 0 0 1 0.03125 0.0625l1.0625 2.6562a0.5859 0.5859 0 0 1 0.03125 0c0.16501 0.43507-7.2e-4 0.9423-0.375 1.2188-1.1734 0.88388-2.1794 1.8906-3.0625 3.0312-0.27834 0.39868-0.80231 0.52689-1.25 0.34375h-0.03125l-2.7812-1.1875c-0.19675-0.08323-0.24942-0.08093-0.375-0.03125-0.12505 0.04948-0.18635 0.09953-0.25 0.25a0.5859 0.5859 0 0 1 -0.0625 0.125 0.5859 0.5859 0 0 1 -0.09375 0.125l-2.2188 5.25c-0.057691 0.13638-0.042674 0.22292 0 0.3125s0.13256 0.20514 0.3125 0.28125l2.8125 1.1875c0.45106 0.18135 0.70425 0.64536 0.625 1.125h0.03125c-0.20075 1.4086-0.21057 2.8922-0.03125 4.3438 0.00129 0.01044-0.00131 0.02081 0 0.03125 0.05199 0.472-0.24387 0.92753-0.6875 1.0938-0.014392 0.0054-0.016521 0.02647-0.03125 0.03125l-2.7812 1.0938c-0.30652 0.12428-0.39323 0.34883-0.28125 0.625a0.5859 0.5859 0 0 1 0 0.03125 0.5859 0.5859 0 0 1 0.03125 0.03125v0.03125a0.5859 0.5859 0 0 1 0.03125 0.0625v0.03125l2.1562 5.375c0.10057 0.24803 0.33108 0.3506 0.65625 0.21875a0.5859 0.5859 0 0 1 0.03125 0 0.5859 0.5859 0 0 1 0.03125 -0.03125h0.0625a0.5859 0.5859 0 0 1 0.0625 -0.03125l2.6562-1.0625a0.5859 0.5859 0 0 1 0 -0.03125c0.43507-0.16501 0.9423 7.2e-4 1.2188 0.375 0.88388 1.1734 1.8906 2.1794 3.0312 3.0625 0.39868 0.27834 0.52689 0.80231 0.34375 1.25v0.03125l-1.1875 2.7812c-0.1426 0.3371-0.07799 0.49947 0.21875 0.625a0.5859 0.5859 0 0 1 0.125 0.0625 0.5859 0.5859 0 0 1 0.125 0.09375l5.25 2.2188c0.13638 0.05769 0.22291 0.04268 0.3125 0s0.20514-0.13257 0.28125-0.3125l1.1875-2.8125c0.18135-0.45106 0.64536-0.70424 1.125-0.625v-0.03125c1.4086 0.20075 2.8922 0.21057 4.3438 0.03125 0.01044-0.0013 0.02081 0.0013 0.03125 0 0.472-0.05199 0.92753 0.24387 1.0938 0.6875 3e-3 0.0081-0.0028 0.02305 0 0.03125 0.0022 0.0064 0.02916-0.0064 0.03125 0l1.0938 2.7812c0.12428 0.30652 0.34883 0.39323 0.625 0.28125a0.5859 0.5859 0 0 1 0.03125 0 0.5859 0.5859 0 0 1 0.03125 -0.03125h0.0625a0.5859 0.5859 0 0 1 0.0625 -0.03125l5.375-2.1562c0.24803-0.10057 0.3506-0.33108 0.21875-0.65625a0.5859 0.5859 0 0 1 0 -0.03125l-0.03125-0.03125a0.5859 0.5859 0 0 1 -0.03125 -0.125l-1.0625-2.6562a0.5859 0.5859 0 0 1 -0.03125 0c-0.16501-0.43507 7.2e-4 -0.9423 0.375-1.2188 1.1734-0.88388 2.1794-1.8906 3.0625-3.0312 0.27834-0.39868 0.80231-0.52689 1.25-0.34375h0.03125l2.7812 1.1875c0.3371 0.1426 0.49947 0.07799 0.625-0.21875a0.5859 0.5859 0 0 1 0.0625 -0.125 0.5859 0.5859 0 0 1 0.03125 -0.03125l0.03125-0.03125a0.5859 0.5859 0 0 1 0.03125 -0.0625l2.2188-5.25c0.05769-0.13638 0.04268-0.22291 0-0.3125s-0.13257-0.20514-0.3125-0.28125l-2.8125-1.1875c-0.45106-0.18135-0.70424-0.64536-0.625-1.125h-0.03125c0.20075-1.4086 0.21057-2.8922 0.03125-4.3438-0.0015-0.01034 0.0011-0.02092 0-0.03125-0.05199-0.472 0.24387-0.92753 0.6875-1.0938h0.03125v-0.03125l2.7812-1.0938c0.30652-0.12428 0.39323-0.34883 0.28125-0.625a0.5859 0.5859 0 0 1 0 -0.03125l-0.03125-0.03125a0.5859 0.5859 0 0 1 0 -0.03125v-0.03125a0.5859 0.5859 0 0 1 -0.03125 -0.0625l-2.1562-5.375c-0.10057-0.24803-0.33108-0.3506-0.65625-0.21875a0.5859 0.5859 0 0 1 -0.03125 0l-0.15625 0.0625-2.6562 1.0625a0.5859 0.5859 0 0 1 0 0.03125c-0.43507 0.16501-0.9423-7.2e-4 -1.2188-0.375-0.88388-1.1734-1.8906-2.1794-3.0312-3.0625-0.39868-0.27834-0.52689-0.80231-0.34375-1.25v-0.03125l1.1875-2.7812c0.1426-0.3371 0.07799-0.49947-0.21875-0.625a0.5859 0.5859 0 0 1 -0.125 -0.0625 0.5859 0.5859 0 0 1 -0.03125 -0.03125l-0.03125-0.03125a0.5859 0.5859 0 0 1 -0.0625 -0.03125l-5.25-2.2188c-0.13638-0.057691-0.22291-0.042674-0.3125 0s-0.20514 0.13257-0.28125 0.3125l-1.1875 2.8125c-0.18135 0.45106-0.64536 0.70425-1.125 0.625v0.03125c-1.4086-0.20075-2.8922-0.21057-4.3438-0.03125-0.01034 0.00146-0.02092-0.00114-0.03125 0-0.472 0.05199-0.92753-0.24387-1.0938-0.6875-0.005392-0.014392-0.026474-0.016521-0.03125-0.03125l-1.0938-2.7812c-0.12428-0.30652-0.34883-0.39323-0.625-0.28125a0.5859 0.5859 0 0 1 -0.03125 0zm5.0312 12.5c2.9427 0.044532 5.7344 1.8285 6.9062 4.7188 1.562 3.8524-0.3047 8.2821-4.1562 9.8438-3.8524 1.562-8.2821-0.3047-9.8438-4.1562-1.562-3.8524 0.3047-8.2821 4.1562-9.8438 0.96846-0.39268 1.9641-0.57723 2.9375-0.5625z" display="block" fill="none" opacity=".8" stroke="url(#l)" stroke-linejoin="round"/>
 <path d="m19.142 11.252c-6.6061 2.6786-9.8015 10.232-7.1229 16.838 2.6786 6.6061 10.232 9.8015 16.838 7.1229 6.6061-2.6786 9.8015-10.232 7.1229-16.838-2.6786-6.6061-10.232-9.8015-16.838-7.1229z" fill="none" stroke="url(#i)" stroke-width=".958"/>
 <path transform="matrix(.88746 -.35984 .35984 .88746 -5.5752 11.458)" d="m24 10c-7.1683-5e-7 -13 5.8317-13 13s5.8317 13 13 13c7.1683-1e-6 13-5.8317 13-13s-5.8317-13-13-13zm0 6c3.864 0 7 3.136 7 7s-3.136 7-7 7-7-3.136-7-7 3.136-7 7-7z" fill="#fff" opacity=".24"/>
 <path transform="matrix(.95763 0 0 .95763 1.0168 1.2075)" d="m18.844 2.4062-5.5 2.2188h-0.03125c-0.5287 0.22894-0.76198 0.8372-0.53125 1.4062a0.45837 0.45837 0 0 1 0 0.03125l1.125 2.8125a0.45837 0.45837 0 0 1 -0.15625 0.53125c-1.2165 0.91636-2.2744 1.9768-3.1875 3.1562a0.45837 0.45837 0 0 1 -0.5625 0.15625l-2.8125-1.1875c-0.30106-0.12735-0.55657-0.1325-0.8125-0.03125-0.26265 0.10391-0.44826 0.29243-0.5625 0.5625a0.45837 0.45837 0 0 1 -0.03125 0l-2.3438 5.5h0.03125c-0.23349 0.55196 0.00989 1.0968 0.59375 1.3438l2.8125 1.1875a0.45837 0.45837 0 0 1 0.28125 0.5c-0.20986 1.4725-0.22113 3.018-0.03125 4.5312a0.45837 0.45837 0 0 1 -0.3125 0.5l-2.7812 1.125h-0.03125c-0.55804 0.24012-0.81338 0.83332-0.59375 1.375a0.45837 0.45837 0 0 1 0 0.03125l2.2188 5.5v0.03125c0.22894 0.5287 0.8372 0.76198 1.4062 0.53125a0.45837 0.45837 0 0 1 0.03125 0l2.8125-1.125a0.45837 0.45837 0 0 1 0.53125 0.15625c0.91636 1.2165 1.9768 2.2744 3.1562 3.1875a0.45837 0.45837 0 0 1 0.15625 0.5625l-1.1875 2.8125c-0.24501 0.57921-0.02286 1.1406 0.53125 1.375a0.45837 0.45837 0 0 1 0 0.03125l5.5 2.3438v-0.03125c0.55196 0.23349 1.0968-0.0099 1.3438-0.59375l1.1875-2.8125a0.45837 0.45837 0 0 1 0.5 -0.28125c1.4725 0.20986 3.018 0.22113 4.5312 0.03125a0.45837 0.45837 0 0 1 0.5 0.3125l1.125 2.7812v0.03125c0.24012 0.55804 0.83332 0.81338 1.375 0.59375a0.45837 0.45837 0 0 1 0.03125 0l5.5-2.2188c0.0075-0.0031 0.02381 0.0032 0.03125 0 0.5287-0.22894 0.76198-0.8372 0.53125-1.4062a0.45837 0.45837 0 0 1 0 -0.03125l-1.125-2.8125a0.45837 0.45837 0 0 1 0.15625 -0.53125c1.2165-0.91636 2.2744-1.9768 3.1875-3.1562a0.45837 0.45837 0 0 1 0.5625 -0.15625l2.8125 1.1875c0.57921 0.24501 1.1406 0.02286 1.375-0.53125a0.45837 0.45837 0 0 1 0.03125 0l2.3438-5.5h-0.03125c0.23349-0.55196-0.0099-1.0968-0.59375-1.3438l-2.8125-1.1875a0.45837 0.45837 0 0 1 -0.28125 -0.5c0.20986-1.4725 0.22113-3.018 0.03125-4.5312a0.45837 0.45837 0 0 1 0.3125 -0.5l2.7812-1.125c0.0079-0.0032 0.02343 0.0034 0.03125 0 0.55804-0.24012 0.81338-0.83332 0.59375-1.375a0.45837 0.45837 0 0 1 0 -0.03125l-2.2188-5.5v-0.03125c-0.22894-0.5287-0.8372-0.76198-1.4062-0.53125a0.45837 0.45837 0 0 1 -0.03125 0l-2.8125 1.125a0.45837 0.45837 0 0 1 -0.53125 -0.15625c-0.91636-1.2165-1.9768-2.2744-3.1562-3.1875a0.45837 0.45837 0 0 1 -0.15625 -0.5625l1.1875-2.8125c0.24501-0.57921 0.02286-1.1406-0.53125-1.375a0.45837 0.45837 0 0 1 0 -0.03125l-5.5-2.3438v0.03125c-0.55196-0.23349-1.0968 0.00989-1.3438 0.59375l-1.1875 2.8125a0.45837 0.45837 0 0 1 -0.5 0.28125c-1.4725-0.20986-3.018-0.22113-4.5312-0.03125a0.45837 0.45837 0 0 1 -0.5 -0.3125l-1.125-2.7812v-0.03125c-0.24012-0.55804-0.83332-0.81338-1.375-0.59375a0.45837 0.45837 0 0 1 -0.03125 0zm5.25 13.625c2.7129 0.04105 5.2937 1.677 6.375 4.3438 1.4418 3.5559-0.28905 7.6524-3.8438 9.0938-3.5559 1.4418-7.6524-0.28905-9.0938-3.8438-1.4418-3.5559 0.28905-7.6524 3.8438-9.0938 0.89051-0.36107 1.8176-0.51364 2.7188-0.5z" display="block" fill="url(#h)"/>
</svg>
